<?xml version="1.0" standalone="no"?>
<!DOCTYPE svg PUBLIC "-//W3C//DTD SVG 20010904//EN"
 "http://www.w3.org/TR/2001/REC-SVG-20010904/DTD/svg10.dtd">
<svg version="1.0" xmlns="http://www.w3.org/2000/svg"
 width="400.000000pt" height="400.000000pt" viewBox="0 0 400.000000 400.000000"
 preserveAspectRatio="xMidYMid meet">

<g transform="translate(0.000000,400.000000) scale(0.100000,-0.100000)"
fill="#000000" stroke="none">
<path d="M1865 3474 c-450 -49 -817 -261 -1075 -622 -201 -282 -300 -660 -261
-1002 15 -128 53 -298 87 -388 138 -367 482 -709 858 -850 194 -74 470 -107
689 -83 341 37 652 186 888 423 268 270 404 582 426 979 13 250 -36 491 -146
714 -84 172 -161 278 -300 415 -200 199 -448 333 -719 390 -95 20 -353 34
-447 24z m395 -109 c271 -59 548 -204 722 -378 110 -111 241 -309 305 -465
169 -409 113 -932 -139 -1299 -70 -102 -241 -272 -353 -351 -151 -107 -334
-187 -525 -228 -102 -22 -333 -29 -445 -15 -225 30 -502 142 -677 275 -95 71
-159 138 -255 266 -176 235 -258 473 -270 780 -10 255 26 440 126 645 205 423
585 704 1056 780 113 18 349 13 455 -10z"/>
<path d="M1915 3305 c-5 -2 -22 -6 -37 -9 -74 -16 -128 -102 -132 -208 -2 -62
-5 -72 -22 -74 -24 -3 -107 -92 -161 -174 -37 -54 -43 -71 -43 -114 0 -74 -26
-232 -60 -376 -18 -71 -27 -126 -21 -128 5 -2 7 -19 4 -38 -3 -21 1 -51 11
-78 l17 -45 -51 -158 c-28 -87 -67 -223 -86 -303 -20 -80 -43 -153 -51 -162
-9 -10 -30 -22 -49 -28 -36 -12 -127 -117 -165 -190 l-22 -42 19 -76 c15 -63
26 -85 59 -119 44 -47 63 -51 141 -31 l46 13 -5 55 c-3 30 -7 64 -9 75 -3 18
3 20 52 22 106 5 120 11 137 51 8 20 36 87 63 147 27 61 64 160 84 222 19 62
53 152 75 200 21 48 42 96 45 105 14 45 106 -31 191 -158 22 -33 67 -89 101
-125 41 -43 66 -78 72 -105 6 -21 30 -111 53 -199 28 -106 44 -188 47 -242 3
-76 6 -85 33 -112 47 -47 147 -103 194 -108 64 -8 85 8 85 65 0 39 -8 61 -44
118 -55 89 -57 97 -60 212 -2 54 -11 126 -21 162 -9 36 -19 92 -20 126 -4 66
-33 123 -127 251 -72 97 -75 103 -49 124 l22 18 -19 43 c-11 24 -62 93 -113
153 -72 85 -98 109 -115 107 -19 -2 -23 4 -28 43 -9 58 -1 83 29 91 27 7 35
29 35 100 0 71 14 86 80 86 29 -1 67 5 84 12 17 7 36 11 43 9 6 -2 14 1 18 6
3 6 19 11 35 11 22 0 39 12 76 55 29 35 53 54 61 50 8 -3 40 -8 70 -12 l56 -6
-5 47 c-8 68 7 65 31 -6 25 -76 82 -190 96 -194 6 -2 18 3 28 10 17 13 16 18
-18 84 -35 70 -65 175 -53 188 4 3 16 -1 28 -9 20 -14 24 -13 51 17 16 17 39
43 52 59 25 31 90 47 193 47 36 0 64 4 64 10 0 6 -10 10 -22 10 -35 0 -44 11
-46 58 0 23 -4 47 -7 52 -11 17 -23 11 -27 -12 -3 -20 -10 -23 -51 -26 -42 -3
-49 0 -54 17 -6 25 -19 27 -39 6 -10 -10 -29 -14 -57 -11 -36 3 -42 7 -45 29
-4 32 -29 43 -37 17 -9 -28 -42 -33 -147 -24 -88 9 -94 11 -106 36 -13 27 -14
28 -49 13 -19 -8 -45 -12 -57 -9 -15 3 -36 -6 -68 -30 -49 -38 -67 -43 -85
-25 -13 13 -3 54 22 93 17 25 16 29 -5 87 -26 68 -59 113 -99 133 -27 14 -99
27 -116 21z m374 -471 c13 -12 -28 -35 -72 -40 -34 -5 -59 -15 -75 -32 -21
-20 -29 -22 -48 -13 -13 6 -24 15 -24 19 0 5 21 26 48 46 46 36 49 37 107 31
33 -4 62 -9 64 -11z"/>
</g>
</svg>
